<svg version="1.2" xmlns="http://www.w3.org/2000/svg" viewBox="0 0 5000 1976" width="5000" height="1976">
	<title>vecteezy_set-of-hand-drawn-floral-elements-for-your-design-leaf-and_-ai</title>
	<style>
		.s0 { fill: #fff8ea } 
	</style>
	<g id="Layer 1">
		<g id="&lt;Group&gt;">
			<path id="&lt;Compound Path&gt;" fill-rule="evenodd" class="s0" d="m1700.5 1371.7c-83.6-45.5-167.8-89.8-245-146.3-143-104.7-303.8-170.4-475.5-210.6-53.2-12.5-105.3-27.6-154.5-51.5-114.1-55.6-229.9-108-336.6-177.8-25.5-16.7-53.2-30.5-80.5-44.1-75.1-37.5-150.5-74.3-225.7-111.4-7.1-3.5-14.9-6.7-20.3-12.2-4.6-4.6-6.2-12.2-11.8-24.1 16.8 0.6 28.1-1.1 38.1 1.8 27.2 7.7 55.3 14.3 80.5 26.6 81.4 40 163.7 78.8 241.8 124.6 102 59.8 207.1 112.9 314.3 162 44.1 20.2 90.6 36.3 137.5 48.7 108.3 28.4 220 30 330.9 36.9 9 0.5 18.3-0.6 27-2.5 137.6-30.3 272.9-67.7 402.5-123.8 87.5-37.8 174.6-76.3 262.6-112.8 36.1-14.9 67-35.4 97.6-59.6 81.1-64.2 170.4-116.1 264.2-160 2-0.9 4.2-1.6 6.2-2.6 6.8-3.4 13.6-6.8 21-10.5-2.2-7.3-4.2-12.5-5.3-17.9-8.4-44.5 18.2-73.6 63.1-69.2 28.3 2.8 43.3 14 47.8 35.5 5 23.9-5.5 49.4-26.3 61.6-7.7 4.5-16.7 7-25.2 9.7-14 4.5-28.3 8-42.2 12.8-58.4 20.2-109.9 53.5-162.2 85.6-19.5 12-39.5 23.4-59.3 35.1q1 3.1 2.1 6.3c114.5-37.7 231.6-53.4 351-42.2 2.2-5.2 3.6-8.2 4.8-11.3 11.3-29.5 26.3-41.1 54.9-41.4 28.5-0.2 50.8 11.5 63.8 37.4 14.3 28.7 1.6 60-29.7 67-18.1 4-37.9 1-56.8-0.5-11.1-0.9-21.8-6.5-33-7.5-139.2-12.3-273.7 8-403.3 60.2-10.2 4.1-20.2 8.9-30.2 13.4 61.4-4.4 120.9 3.2 180.2 12.4 13 2 23 0.5 34.9-6.5 10.9-6.4 25.6-7.5 38.9-8.5 15.8-1.1 29.3 5.4 35.7 20.9 6.9 17 5.3 33.1-7.7 47.4-32.5 35.8-78.5 24.9-98.3-25.3-78-9.8-156.6-12.8-236-0.5-93.2 14.4-177.3 54.1-263.5 88.7-59.8 24.1-121 45.1-182.4 65-45.3 14.6-91.9 24.9-137.8 37.4-7.6 2.1-14.9 5.5-23.3 8.6 58 4.5 113.3 9.8 168.7 12.7 126.1 6.6 250.2 27.9 374 50.7 57.9 10.6 115.3 25.3 173.6 32.3 73.2 8.8 147.1 11 220.6 17 71.2 5.9 142.7 9.1 212.4 27.1 24 6.2 48.6 10.4 72.1 15.3 24.5-27.8 52.4-38.2 81.8-31.4 33.7 7.8 45.8 40.7 25.1 68.2-19.1 25.4-51.1 31.2-78.8 15.2-10.5-6.1-21.7-12.3-33.3-14.8-39.8-8.8-79.8-18.3-120.2-23.4-95.6-12.1-191.5-21.9-287.3-32.5-1.4-0.2-3 2.3-6.8 5.3 12.3 4.9 23.3 9.7 34.5 13.8 88.7 32.5 173.1 73.1 251.5 126.6 70.5 48.2 147.3 80.9 235.8 72.4 33.9-3.2 67.9-6.2 101.4-11.8 63.6-10.7 127.9-19.7 185.3-52.9 43.2-25 87.3-48.6 130.2-74 56.8-33.8 108.4-74.5 155.5-120.9 41.2-40.6 82.8-80.9 124-121.4 3.7-3.6 6.5-8.1 10.1-12.6-4.9-5-8-8.1-11-11.4-22.8-25.4-28.7-53.5-15.5-74 12.7-19.8 44.2-29.2 73.9-19.9 11.5 3.6 23.4 9.9 32.1 18.1 34 31.7 22.4 82-21.1 97.4-10.3 3.6-20.8 9-28.9 16.2-35.4 31.9-71.3 63.4-104.5 97.6-71.2 73.3-153.4 130.8-244.1 176.9-9.5 4.8-18.5 10.5-27.7 15.8q1.2 3.1 2.4 6.3c35.1-7.9 71.5-12.1 104.9-24.5 120.2-44.6 228.5-110.5 327.4-191.8 3.5-2.8 6.9-5.9 9.8-9.4 26.7-32.3 54.5-63.8 79.8-97.2 44.3-58.6 87-118.3 130.2-177.2-11-9.6-20.5-16.2-27.6-24.7-16.2-19.2-14.1-44.6 3.6-61.1 22.1-20.6 63.1-19.1 83.5 3 19.2 20.9 18.4 42.4-2.2 62.2-5.6 5.4-11.3 11-16 17.2-37.5 49.8-74.9 99.7-112.2 149.7-3.7 4.9-6.9 10.3-10.4 15.5 12.3-2.7 21.2-8.6 29.9-14.8 115.8-82.5 233.7-160.8 375.2-193.5 0.9-0.2 1.6-1.5 4.1-4.1-1.3-6.1-2.7-13.7-4.4-21.1-5.2-22.4 1.4-40.7 19.9-53.8 19.8-13.9 41.1-12.1 61.2-1.3 23.2 12.5 27.5 35 26.4 58.6-0.9 18.6-12 29.7-31.7 35-35.7 9.7-72 17.6-106.9 29.7-34.2 11.7-67 27.5-100.1 42.1-6.2 2.7-11.2 8-19.8 14.3 46.4-2.6 88.2-4.6 129.9-7.9 7.7-0.6 16.2-5.3 22.1-10.7 19.2-17.3 51.3-19 71-2.5 21.1 17.7 17.8 43.6-7.6 54.1-20.7 8.5-43.5 10.3-62.9-0.2-21.4-11.6-42.8-12.9-65.7-11.3-26 1.7-52.1 2.1-78 4.9-55.8 6-108.9 19-154.5 55.3-51.5 40.9-105.6 78.5-157 119.5-92.4 73.8-186.1 145.2-293.5 196.4-3.2 1.5-5.5 5-7.7 7.1 62.2 1.9 123.5 1 184.3 6.1 81 6.9 155.3-9.4 225.3-49.9 95.2-55.1 192.1-107.4 285.9-164.9 147-90.1 292.4-182.9 437.7-275.7 87-55.6 172.7-113.2 258.8-170.2 15.8-10.4 30.8-22.1 42.5-30.6 0.2-16.1-2-27.9 0.9-38.1 10-34.3 64.2-64.8 99-57.3 31 6.8 45.9 36.5 31.6 65.5-20.5 41.4-53.4 63.6-100.7 62-13.3-0.5-25.4-1.7-38.2 8.1-50.4 38.7-102.4 75.3-153.8 112.6-33.8 24.6-67.6 49.1-103.6 75.2 67.2-7 130.9-13.6 194.8-20.3 13.1-30.7 32.4-43.5 61.4-40.3 21.7 2.4 34.5 14.3 39.1 36.2 4.3 21-1.3 35.5-20.1 45.9-25.1 13.9-50.9 18.3-77.6 2.8-8.3-4.8-18.6-9.3-27.9-9-115.8 4-227.2 23.6-327.3 88.3-73.4 47.4-148.7 91.7-223.9 136.1-113.3 67-227.3 132.8-340.9 199.1-9.3 5.4-18.4 10.9-27.6 16.4 52.7-3.3 99.6-23 147.5-39.8 49-17.2 98.6-32.8 147.6-48.9 8.3-53.5 58.3-57.3 92.2-42.2 20.2 9 31.8 26.5 30.2 44.9-1.7 18.8-15.4 37-36.2 40.3-17.4 2.7-36.5 2.4-53.5-2-16.3-4.3-30.4-4-45.8 1.5-40.6 14.4-81.1 29.2-122.2 42.1-48.6 15.2-97.2 31.5-146.9 42-98.4 21-198.4 16.7-298.3 12.3-38.4-1.7-77.1-1.1-115.4 1.4-117.1 7.5-230.7 34.5-344.1 63.2-54.8 13.8-110.6 24.6-166.3 34.6-105.3 18.8-208 14.8-303.2-41.8-20.4-12.2-40.6-24.9-61-37.1-27.2-16.3-53.6-34.2-81.9-48.4-206.2-103.4-425-165.1-654.2-185.1-180.7-15.7-362.3-22.2-543.6-32.6-4.6-0.3-9.3 1.8-20.6 4.2 23.7 8.4 40.7 14.5 57.7 20.4 84 29 163.1 67.3 236.3 118.5 48.2 33.7 100 62.3 150.4 93 24.9 15.2 52.5 21 81.3 21.4 35.2 0.5 70.3 0.4 105.5 0.4 65.1-0.2 129.2 5.4 190.4 29.9 10.3 4.1 21.2 6.5 30.7 9.3 8.2-10.4 13.6-21.2 22.3-27.4 21.4-15.5 62.2-7.6 80.8 13.7 19.5 22.5 21.4 63.6 3.8 81.7-19 19.5-57 21.3-81.7 3.4-6.4-4.6-11.3-11.2-17.6-16-6.9-5.3-14.1-11.2-22.1-14.2-91.9-34.3-187.3-38.4-292-31.6 45.2 25.8 84.1 47.9 123 70.2 18.3 10.5 36.8 14.7 58.4 9 25.8-6.9 51.9-3.8 76.8 6.3 27.4 11.2 35.1 30.3 23.7 57.3-13.6 32.1-53.6 52-90.6 44.9-38.5-7.3-58.3-31.2-60.9-74.4-53.4-30.5-104-60.7-155.7-88.8zm3095.4-841.7c9.9 3.5 20.3 11.2 27.9 9.1 20.8-5.7 37.1-19 45-44.1-34.8-5.4-47.2 0.6-72.9 35zm-1331.8 367.6c-3.2 11.4 19.2 33.2 32.7 33.8 11.5 0.5 19.4-5.2 21.1-17.2 2.2-15.9-13.1-30.5-38.7-31.9-3.2 3-13.1 8.1-15.1 15.3zm-1560.1 563.7c1.5 21.1 13.1 26.6 26.7 28.6 16.1 2.5 31.1 1 41.3-23.4-25.2-1.9-45.4-3.5-68-5.2zm177-92.6c3.2 5.2 14.5 7.6 22 7.2 2.8-0.1 7.9-12.8 6.6-18.5-2.9-13.1-13.1-19.8-32.8-19.1 1.3 11.9-0.3 22.9 4.2 30.4zm1719.3-645.2c-5.8-16.4-17-17.5-28.1-13.4-5.3 1.9-13.1 11-12 13.7 3.3 8.1 10.5 14.7 17.8 24 9.8-10.8 16.4-17.9 22.3-24.3zm358-16.3c1-16.7-4.6-27.6-20.1-24-16.5 3.8-13.7 17.1-7.6 31.6 9.2-2.5 18.4-5 27.7-7.6zm-69.6 430.6c3 6.8 3.8 13.7 7.3 15.6 10.9 5.9 14.9 4.4 37.3-7.9-12.5-14.3-26.4-13.5-44.6-7.7zm655.2-383.6c-4.2 1.4-6.2 9.6-9.2 14.7 4.8 1.8 10 5.8 14.2 4.9 7-1.5 13.4-6.2 20-9.6q-0.7-5-1.5-10.1c-7.9-0.2-16.4-2.2-23.5 0.1zm-2300.3-271.4c-12.5-15.8-24.4-13.4-34.4-5.4-3.9 3.2-2.8 12.5-4 19q4 2.1 8 4.3c9.8-5.7 19.6-11.5 30.4-17.9zm148.6 147.5c-6.7-1.7-14.4-0.7-21.3 0.8-1.5 0.3-2.8 10.9-2 11.2 6.6 2.5 13.6 4.5 20.6 5 4 0.3 8.1-2.5 14.7-4.7-4.9-5.3-7.8-11.3-12-12.3zm-274.7 167.8c12.1 7.4 22.5 6.6 33.8-6.8-22.4-10.7-22.4-10.7-33.8 6.8zm401.7 362.8q-0.1-2.8-0.2-5.7-8.2 0.2-16.4 0.4 0.1 3 0.1 6 8.2-0.3 16.5-0.7z"/>
		</g>
	</g>
</svg>