<svg version="1.2" xmlns="http://www.w3.org/2000/svg" viewBox="0 0 2162 730" width="2162" height="730">
	<title>vecteezy_set-of-hand-drawn-floral-elements-for-your-design-leaf-and_-ai</title>
	<style>
		.s0 { fill: #aa512f } 
	</style>
	<path id="&lt;Compound Path&gt;" fill-rule="evenodd" class="s0" d="m1223.1 249.5c25 5.8 49.9 11.7 75 17.3 4.4 1 9.3 0.2 13.7 1.3 20.2 5.1 38.1-0.1 55.3-10.5 13.9-8.4 28.5-15.4 42-24.3 32.8-21.9 69.1-30.1 107.9-29.5 12.9 0.2 25.8 1.2 38.7 2 2.7 0.2 5.9 0.1 8.1 1.4 3.2 2 7.3 4.6 8.2 7.7 1.5 5.4-2.9 8.2-7.8 9.6-3.1 0.8-6.2 1.6-9.4 2.2-36.3 6.6-70.4 19.5-102.5 37.2-27.4 15.2-55.8 24.3-87.3 22.4-1.8-0.1-3.7 0.1-5.4 0.5-0.8 0.2-1.5 1-3.3 2.2 15.4 6.4 30.3 12.3 45 18.7 31.7 13.9 64.3 26.2 94.8 42.4 27.5 14.6 52 10.2 77.3-3q2.4-1.3 4.7-2.8c28.4-17.9 59.5-23.7 92.8-22 31.1 1.6 61.1 9.4 91.5 14.9 4.9 0.9 9.1 3.2 9.5 8.6 0.4 6.4-4.3 8.9-9.5 10.2-14.8 3.6-29.6 6.9-44.5 10.4-15.7 3.6-31.7 6.6-47.2 10.9-30.2 8.4-60.8 11.3-91.9 8.9-2.2-0.1-4.4-0.1-9.6-0.2 4.6 3.3 6.8 5.2 9.3 6.7 23.7 14.4 47.9 27.5 73.7 37.8 5.9 2.4 11 2.7 17.2 0.9 20.3-6.1 40.7-12.5 61.4-16.7 12.9-2.6 26.9-3.5 39.9-1.6 37.5 5.3 74.7 12.3 112 18.8 3.1 0.6 6.4 1.8 8.8 3.7 6.1 4.7 5.1 12.6-2 15.5-3.7 1.5-8.1 2-12.2 2.2-7.8 0.3-15.7-0.3-23.5 0.3-19.3 1.4-38.6 2.8-57.8 5.2-30.2 3.7-60.2 10.4-93.4 4 3.4 3.2 4.9 5.2 6.8 6.3 21.9 12.9 43.4 26.5 65.9 38.2 17.5 9.2 36.4 15.8 54.3 24.2 35.6 16.5 70.9 33.5 106.3 50.4 3.3 1.6 6.8 3.6 9 6.4 2.3 2.9 4.7 7.2 4.2 10.5-0.7 5.1-6 4.7-10.2 4.3-10.6-0.9-21.1-2.1-31.7-2.8-12.9-0.8-25.8-1.2-38.7-1.8-24.8-1.1-45.3-11.5-58.8-31.8-13.3-19.9-30.1-33.6-51.8-43.6-19.6-8.9-37.6-21.3-57.9-30.8 2.9 3.6 5.6 7.2 8.6 10.6 25.5 28.5 42 61.8 52.6 98.1 2 6.6 3.4 13.6 3.6 20.4 0 3.5-2.4 9.2-5 10.1-3.6 1.2-8.7-0.7-12.5-2.4-2.7-1.3-4.6-4.5-6.6-7-15.9-20-33.6-38.2-53.5-54.1-18.1-14.6-31.7-31.8-37.4-55.1-4.7-19.7-11.1-39-17.1-58.4-1.1-3.6-3.5-7.8-6.6-9.8-43.8-27.5-88.4-53.6-135.5-75.3-0.3-0.2-0.8 0.3-2.7 1.1 5.1 4.6 9.7 8.8 14.5 12.9 25 21.6 47.4 45.5 66 72.7 7.5 11.1 14.7 22.6 19.9 34.8 12.2 28.9 23.2 58.4 34.5 87.7 1.7 4.2 3.4 8.7 3.9 13.2 0.9 7.2-4.5 11.7-11.3 9.2-4.6-1.7-9.2-4.6-12.7-8.1-16.1-16.5-32.8-32.6-47.5-50.4-14.1-17-27.3-35.1-38.4-54.2-9.2-15.8-14.6-33.8-22.1-50.7-5.9-13-12.3-25.7-18.7-38.5-2.9-5.8-7.3-11-9.2-17-6.7-20.7-22.2-32.7-40.6-41.1-17.7-8-36.1-14.3-54.2-21.2-1-0.4-2.4-0.1-5.2-0.1 3 2.9 4.8 4.7 6.8 6.5 18.5 16.6 34 35.6 44.7 57.9 21.8 45.8 42.6 92.2 63.7 138.4 1.9 4.1 3.2 8.7 4 13.2 1.4 8.6-4 13.7-12.2 10.9-6.5-2.2-12.6-5.8-18.3-9.6-22.5-15.3-40.3-35.3-55.3-57.7-11.8-17.7-22.7-36-33.5-54.3-11.5-19.3-17.6-40.5-22.3-62.3-3.7-17.6-8.8-34.9-12.8-52.4-1.6-7.3-7.1-9.4-12.8-11-22.6-6.4-45.3-13-68.1-18.7-17-4.2-34.2-7.1-52.4-8.5 2.2 1.8 4.4 3.7 6.8 5.4 27.2 19.3 48.8 43.3 64.2 73.2 16.4 32.1 33.7 63.7 50.5 95.6 3 5.7 6.1 11.5 7.9 17.6 3 10.4-3.5 17.1-14.3 15.6-1.3-0.2-2.7-0.5-4-1-23.5-9.7-44.5-22.6-57.4-45.6-1.6-2.9-2.8-5.9-4.7-8.5-25.7-34.5-43.6-72.7-56.6-113.6-3.9-12.5-12.2-22.7-23.6-29.9-3.5-2.1-7.8-4.9-8.9-8.3-2.3-6.9-7.2-7.7-12.8-8.1-45.3-3.2-90.3 0.6-138.6 4.6 5.5 2.7 8.1 4.2 10.8 5.2 36.1 13.9 69.7 31.9 98.5 58 8.9 8.1 18.2 15.7 26.7 24.2 25 24.9 54.8 42.2 86.4 56.8 4.8 2.2 11.8 3.3 10.4 10.8-1.4 6.9-8 6.7-13.5 7.2-18.8 1.4-37.7 3.7-56.6 3.7-28.4 0-53.5-8.9-71.8-32.4-8.8-11.3-18.7-21.8-27.6-33-18.9-23.6-40.3-44.7-64.3-62.7-10.6-7.9-24.3-11.7-34.9-19.5-16.4-12.2-33.3-11-51.2-6.3-12.7 3.4-25.4 6.7-38.2 10q0.1 1.5 0.2 2.9c6.4 1.7 12.9 3.3 19.3 5.1 29.7 8.6 55.8 24.2 81.5 40.7 24.1 15.4 47.4 32.3 74.5 42.5 5 1.9 9.1 5.3 8 11.4-1.1 6.1-5.9 7.8-11.4 7.8-1.4 0-2.8 0.2-4.2 0.1-39.9-4.2-80.1-7-118.5-20.4-16.3-5.7-29.4-14.6-38.8-29.5-10.3-16.1-23.5-29.5-39.3-40.5-5.6-3.8-10.6-5.2-16.7-2.7-13.2 5.4-26.6 10.5-39.5 16.6-17.1 8.2-33.7 17.3-50.5 26-2 1-3.7 2.4-7.2 4.7 10.9-0.1 19.6-0.5 28.3-0.2 18.2 0.6 35.8 3.9 52.7 10.6 30.1 11.9 59.2 25.8 86.9 42.7 27 16.5 55.9 28.9 87 35 13.1 2.5 26.6 3.2 39.9 4.7 3.2 0.4 6.7 0.2 9.5 1.4 2.1 1 4.7 3.9 4.7 5.9-0.1 2.7-2.1 5.8-4.2 7.8-1.4 1.4-4.2 1.4-6.5 1.8-16.8 2.6-33.8 4.9-50.5 8-27.3 5-54.8 8.3-82.6 8.3-19.7 0-37.3-5.7-52.6-18.2-14-11.3-27.6-23.2-41.6-34.5-11.9-9.5-24.2-18.5-36.2-27.9-18.5-14.6-40.6-19.7-62.8-23.8-5.4-1-12.4 0.5-17.2 3.3-19.5 11.3-38.4 23.7-60 37.1 5.1 0.3 7.9 0.8 10.6 0.6 21.3-1.8 41.6 2.1 60.9 10.6 22.3 9.9 44.4 20.6 66.6 30.8 16.7 7.7 33.6 15.3 50.4 23 2.5 1.1 5.3 2 7.3 3.7 5.7 4.6 4.8 12.6-1.7 16-2.4 1.2-5.3 1.9-8 2.1-29.9 2.2-59.8 4.7-89.7 6.1-23.4 1.1-44.7-5.3-63.5-19.9-13.8-10.8-28-21.2-42.6-31-8-5.4-16.9-9.4-25.5-13.7-4.7-2.3-9.5-2.6-14.4 0.8-30.7 21.4-61.5 42.6-92.2 63.9-0.3 0.2-0.3 0.8-1 2.6 8-0.4 15.6-0.7 23.1-1.1 30.3-1.4 58.9 6.7 85.9 18.6 32.3 14.2 64.6 27.6 99.8 32.4 4.9 0.7 8.9 2.9 9.6 8.3 0.8 5.9-2.2 10-7.7 11.5-34.8 9.7-69.6 19.3-106.3 15.5-28.1-2.9-52.7-14.8-72.5-34.5-16.2-16.1-34.5-25.4-56.7-29.2-8.7-1.6-16.3-1.2-24.2 1.9-33.9 13.5-68.1 26.3-101.7 40.7-27.8 11.9-56.4 20.1-86.4 24.1-23.8 3.2-47.5 6.9-71.3 10.2-5 0.7-10.2 1.1-15.2 0.5-3-0.4-5.8-2.9-11.7-6.1 7.9-3.9 12.3-7.2 17.3-8.4q30.3-7.2 60.9-13.2c15.8-3.2 31.7-6.3 47.8-8.1 17.6-2 28-12.7 35.5-27 8.6-16.4 15.8-33.2 19.1-51.8 6-34.6 21.1-65.8 38.7-95.8 5.3-9.1 12.2-17.7 20-24.6 19.4-17.1 39.7-33.1 59.7-49.5 2.2-1.7 4.6-3.1 7-4.4 4.8-2.6 9.7-4 14.1 0.2 5.1 4.7 3.6 9.9 0.6 15.1-1.9 3.1-4 6.2-5.8 9.4-12.2 20.4-21.8 41.7-25.6 65.4-2.1 12.7-4.8 25.4-8.2 37.9-6.4 23.6-20.7 43.1-34.8 62.6-4.3 6-9 11.7-14.8 19.4 4.7-1 7.6-1.2 10.3-2.3 37.9-15.1 74.1-33.2 106.6-58.4 13.5-10.5 28.1-19.5 42.5-28.7 5.4-3.5 7.6-8 9.6-14.1 5.9-17.4 3.2-33.8-3.9-49.9-9.6-21.8-9.3-43.5-2.7-66.2 11.8-40.4 32.3-74.3 67.4-98.6 9.9-6.8 19.4-14.2 29.3-21 3.7-2.7 7.7-5.5 12.1-6.6 3.4-0.8 8.4-0.3 11 1.8 3.7 3 2.1 7.9-1.1 11-27.3 26.3-32.6 62.2-42.6 96.1-4.7 15.9-9.6 31.8-14.9 47.5-8.1 24-16.6 47.8-25.8 73.9 4.9-2.2 7.8-3.2 10.3-4.7 36.4-22.8 72.8-45.7 109.3-68.4 5.8-3.6 8.7-8.5 11.5-14.6 10.3-22.5 10-45.6 7.1-69.3-3.7-29.7 3.7-56.9 20.5-81.4 6.2-9.2 13.3-17.8 20.7-26 24.9-27.7 57.1-39.7 93.6-41.9 5.4-0.4 10.5 0.3 12.8 5.7 2.5 5.8-1.2 9.6-5.2 13-3.5 3-6.7 6.4-10.3 9.4-28.2 23.1-45.4 54.3-62.2 85.7-3.9 7.3-7.4 15.1-9.2 23.1-4.4 20.4-9.1 40.6-18.7 59.3-0.3 0.6 0.3 1.6 0.5 3.1 11.3-5.6 22.1-11.9 33.5-16.6 19.6-8.1 39.5-15.7 59.5-22.5 7.3-2.5 12.6-6 14.8-13.1 3-9.6 6.8-19.3 7.8-29.2 3.7-34.3 15.9-65.4 33-94.8 10.1-17.3 24.4-30.6 42.6-38.5 20.3-8.8 41.4-15.6 62.2-23.2 4.5-1.7 9.6-2.8 12.3 2.3 2.8 5-0.6 8.6-4.3 11.8-11.9 10.2-23.2 21.3-35.6 30.9-21.8 16.8-37.1 38.4-49.2 62.7-12.5 25.1-24.8 50.3-37.6 76.2 3.1-0.4 6.5-0.7 10-1.3 13.2-2 26.4-4.3 39.7-6.2 36-5 63.2-22.7 83-53.7 14.7-22.9 30.7-45.2 48.6-65.6 23.5-26.6 53-44.8 89.2-48.7 19.7-2.1 39.6-2.1 59.4-2.9 2.7-0.1 5.8-0.2 8.2 0.9 2.6 1.1 6.1 3.4 6.4 5.7 0.4 2.3-1.8 6.1-4.1 7.6-6.9 4.6-14.1 8.8-21.6 12.4-41.1 20-74.1 50.1-104.4 83.5-11 12.2-23.3 22.1-38.1 29.3-12.7 6.1-24.8 13.5-36.7 22.3 6.7-0.1 13.4-0.4 20.2-0.5 26.3-0.1 52.6-0.4 78.9-0.3 9 0 16.3-2.2 24.3-7.3 28.6-18.3 53.6-40.8 78.5-63.5 27.5-25 59.8-35.9 96.9-32.4 21.2 2 42.3 3.9 63.5 6 4.6 0.5 9.1 1.2 13.7 2.1 4.6 0.9 9.4 1.9 10.4 7.5 1.1 6.3-3.2 9.2-8.1 11.3-12.8 5.4-25.7 10.5-38.4 16.1-33.8 14.7-67.8 29.3-101.4 44.6-19.5 8.9-37.7 20.8-60 22.8q0.2 1.4 0.4 2.9zm-253.7 211q0-1.4 0.1-2.7c-1.4-0.7-2.8-1.5-4.4-2-28.4-8.5-54.5-21.9-80.2-36.7-24.7-14.1-50.9-25.8-76.9-37.6-12.6-5.6-26.2-9.2-39.6-9.3 25.2 20.9 50.3 41.8 75.4 62.6 5.6 4.8 10.7 10.4 16.9 14.3 8.1 5 16.7 9.9 25.7 12.6 20.8 6.3 42.1 3.2 63.2 1.3 6.6-0.5 13.2-1.7 19.8-2.5zm221.4-223.1c19.6 1.6 39-3 60.7-14.7 42.3-22.7 84.3-46 130.2-61 1.9-0.7 3.6-2 8.2-4.7-27.1-3-50.8-5.9-74.8-2.8-20.8 2.6-39.2 10.9-54.7 24.7-22.3 20-43.7 41.1-69.2 57.2-0.3 0.2-0.3 0.9-0.4 1.3zm-849.2 312c14-5.7 23.9-15 31.8-26.7 9.8-14.5 19.2-29.3 28.8-44 7.6-11.7 12.7-24.5 15.3-38.3 2.9-15 5.3-30 8.7-44.9 1.9-8.4 5.2-16.6 8.7-27.1-3.9 2.8-5.8 4-7.6 5.4-35.9 27.5-53.1 66.6-66.1 108-7.1 22.2-7.5 46.5-19.6 67.6zm1020.9-216.2c-0.7 1.6-1.4 2.5-1.3 3.2 3.9 31.4 12.1 61.4 28.4 88.8 7.1 11.9 13.4 24.2 19.9 36.4 12.1 22.6 28.7 41.6 47.7 58.7 1.5 1.3 3.5 2.2 7.8 4.8-2.5-6-3.7-9.2-5.1-12.4-11.7-27-23.1-54.2-35.2-81.1-8.3-18.4-17.1-36.7-26.6-54.6-8.9-16.7-21.1-31-35.6-43.8zm-163.4 81.2c-5.3-3.6-8.4-6-11.9-7.8-17.7-9.2-33.2-21.4-47.4-35.4-8.3-8.1-16.8-15.9-24.8-24.2-25.9-26.6-57.8-43.8-91.2-58.8-1.5-0.6-3.3-0.7-6.7-1.3 2.4 2.6 3.5 4 4.8 5.2 27 21.8 51.7 45.9 73 73.3 7.9 10.2 16.7 19.8 25.8 28.9 5.1 5.1 11.3 9.9 17.8 12.6 18.5 7.7 37.9 9.8 60.6 7.5zm7.8-320.9c-44.5-0.5-81 15.7-110.1 47.8-13.3 14.6-25.5 30.5-37.7 46.1-5.8 7.4-10.7 15.5-16 23.3q1.2 1.1 2.3 2.2c20.3-12.1 43-19.7 60.1-37.7 29-30.7 59.9-59.2 98.3-78 1-0.6 1.7-1.9 3.1-3.7zm-372.8 39.7c-5.6 1.2-8.6 1.6-11.5 2.6-36.5 12.6-59.2 39.8-75 73.3-6.3 13.5-8.2 28.6-5.7 43.5 3.3 19 5.6 37.9 3.6 57.4 6.4-14.8 13.5-29.1 15.9-45.2 1.3-9.1 2.5-18.6 5.7-27 14.1-36.4 32.2-70.5 61.2-97.6 1.5-1.5 2.7-3.2 5.8-7zm-57.4 353.7c-3-3-3.8-4.3-4.9-4.8-26.4-13.2-52.7-26.6-79.3-39.3-7.8-3.7-16.3-6.4-24.9-8-12.7-2.5-25.7-2.9-40.4 1 20.5 14.6 39.3 27.9 58 41.2 11.4 8 24.4 11 38 11 17 0.1 34-0.6 53.5-1.1zm724.2-82.8c5.7 14.7 11 28.4 16.6 42.1 4.1 10.3 7.1 21.4 13.3 30.3 19.2 27.7 39.7 54.5 59.8 81.5 2.3 3.1 5.3 5.6 8 8.4 0.6-3.9-0.3-6.9-1.4-9.7-7.3-19-13.8-38.3-22.2-56.8-16.8-37-41.3-68.6-71.4-95.9-0.2-0.2-0.8 0-2.7 0.1zm-875.7-172.7c-4.4 3.1-6.2 4.3-8 5.7-31.8 24.6-45.2 59.4-53.3 97.1-4 18.7 3.1 34.8 10.9 52.9 16.9-52.3 33.2-102.5 50.4-155.7zm685.1 232.6q1.2-1 2.3-2c-1.1-1.9-2.1-4-3.4-5.7-24.7-32.7-42-69.4-59.6-106.2-6.9-14.4-17.3-27.1-26.7-40.2-3.5-5-8.7-8.8-13.1-13.1q-1.2 0.9-2.4 1.7c5.5 16.4 10.8 32.9 16.6 49.2 11.4 31.7 32.3 58.1 49.3 86.5 8.4 14.1 22.6 22.5 37 29.8zm-661.2 108.7c-20.1-8.7-39.4-17.3-58.9-25.3-14.1-5.8-28.2-11.4-42.7-15.9-11.6-3.6-23.7-5.7-37.1-4.1 48 50.4 94.7 65.4 138.7 45.3zm1015-95.6q-1.4 0.9-2.8 1.8c3.5 11 7.2 21.8 10.3 32.8 3.4 11.9 9.2 22.2 17.9 30.8 16.8 16.9 34 33.4 52.4 51.3-13.5-48.7-46.5-82.2-77.8-116.7zm48.5-129.1c-49.7-14.7-109.8-4.9-135.9 21.4 47.7 6.2 90.8-13.1 135.9-21.4zm-711.8 25.1c-36.9-23.4-68.9-50.4-110.8-62.5 21.7 42.9 61.4 65.6 110.8 62.5zm-99.7-151.1q1.7 0.5 3.3 1c4.3-9.8 8.8-19.6 12.8-29.6 13.2-32.4 29.3-62.7 57.9-84.5 0.3-0.3 0.1-1.4 0.1-2.9-20.9 8.6-37.7 21.3-48.8 41.1-11.2 19.9-18.7 41.1-23.6 63.3-0.9 3.8-1.2 7.7-1.7 11.6zm1004.2 363.1c-27-11.1-52-26.7-82-33 10.7 26.9 43.9 38.2 82 33zm-516.5-317.7q0.4 1.5 0.8 2.9c10.8-3.6 21.9-6.2 32.1-11 25.4-11.6 50.3-24.3 74.4-36-25.6-2.7-60.8 11.6-107.3 44.1zm400.3 170.2c-26.7-6.8-52.5-4.5-77.4 6.7 26.3 3 51.9-1.7 77.4-6.7z"/>
</svg>