<svg version="1.2" xmlns="http://www.w3.org/2000/svg" viewBox="0 0 5000 1976" width="5000" height="1976">
	<title>vecteezy_set-of-hand-drawn-floral-elements-for-your-design-leaf-and_-ai</title>
	<style>
		.s0 { fill: #fff8ea } 
	</style>
	<g id="Layer 1">
		<g id="&lt;Group&gt;">
			<path id="&lt;Compound Path&gt;" fill-rule="evenodd" class="s0" d="m1303.6 900.8c51.6 25.4 103.3 50.7 155.1 75.8 6.3 3.1 13.6 4.1 20 7.1 10.6 4.9 20 3.4 30.3-1.6 36.9-17.9 70.5-39.6 100.1-68.7 29.6-29 62-55.3 94.6-81.1 23.3-18.3 51.2-27.3 80.6-31.9 119.2-18.9 236.6-8.9 353 19.9 10.3 2.5 20.3 6.3 30.2 10.3 11.8 4.8 18.7 13.7 16.7 27-2.1 13.9-12.6 18.6-25.1 18.6-14.2 0-28.4-0.5-42.4-2.1-49-5.6-95.2 3.2-139.4 24.5-44.7 21.4-89.7 42.2-134.4 63.6-76.4 36.5-153.5 70.6-240.3 79.7 44.6 25.5 89.8 49.2 135.3 72.5 4.2 2.1 10.7 2.6 15.2 1.1 50.8-16.4 100.9-34.1 137.1-76.7 22.5-26.5 52.1-39.9 86.1-41.8 85-4.7 168 4.5 246.1 41.4 12 5.6 23.4 12.2 37 19.4 3.1-12.4 4.9-23.7 8.6-34.2 8.1-23.4 14.7-47.7 26.3-69.3 35.6-66.5 84.4-122.2 145.1-167.2 5.7-4.1 11.7-8.5 18.2-10.7 16.1-5.6 29.1 4.8 26.7 21.5-1.3 9.5-4.6 19-8.3 27.9-25.9 62.5-43.9 127.1-53.3 194.1-0.8 6.1-2.2 12.2-4.1 18.1-28.1 89.8-81.1 158.6-168.9 196.9-17.7 7.8-36.9 12-55.4 17.8 50 11.4 100.5 17 151.6 16.2 3.9-0.1 8.6-2.6 11.5-5.4 15.4-14.5 30-29.9 45.5-44.2 39.2-36.4 72.2-77.7 99.6-123.7 20.4-34.4 50.4-57.7 90.1-64.6 33-5.7 66.6-9 100-11.2 35.2-2.4 70.1 2.7 104.4 14.3 13.5-35.8 30.3-66.7 54.5-93.3 47-51.7 101.9-92.9 164.7-123.5 9.5-4.7 19.6-9 29.9-10.5 19.3-3 30.7 10.1 25.9 29.2-2.3 9.3-7.2 18-11.2 26.9-26.8 59.7-53.7 119.4-80.7 179-10.3 22.6-20.4 45.3-31.6 67.4-24 47.2-57 87.3-98.1 120.8-3.7 2.9-6.7 6.6-12.9 12.8 8.8-0.3 13.1 0 17.4-0.5 80.1-9.8 159.3-24.2 237-46.6 19.4-5.5 31.1-15 35.1-34.6 2-10.4 5.7-20.5 7.1-31 4.2-30.7 8.6-61.4 11-92.2 4.6-58.1 23.2-111 57.1-157.9 22.3-30.8 45.5-61.2 71.4-88.9 57.3-61.1 125.2-109.4 195.2-154.8 3.7-2.4 7.6-4.6 11.6-6.6 10-5 20.3-7.2 29.6 1.3 8.6 7.8 7.4 17.5 3.6 27-6 14.8-11.9 29.6-18.8 44-44.9 94.3-90 188.6-135.3 282.8-27.1 56.4-61.3 107.7-110.9 147.3-3.6 2.9-6 7.1-9 10.7 46.2-15 90.5-32.7 134.4-51.5 59-25.2 58.5-25.7 83.9-83.5 28.1-64 57.2-127.6 85.5-191.6 37.1-83.9 101.6-139 183.3-176.3 6.4-2.9 13.2-5.6 20.1-6.5 17.1-2.3 27.7 7.9 25.5 24.9-1 7.7-3.7 15.6-7.3 22.6-11 21.2-22.7 42-34.3 62.9-28.3 51.1-56.6 102.2-85.1 153.1-11.3 20.1-23.3 39.7-34.9 59.6-2.9 4.8-5.6 9.6-8.4 14.5 46.1-22.5 89.1-48.6 133.6-71.8 29.7-15.6 50.5-36.6 62.2-68.2 22.2-59.7 47.3-118.4 68.2-178.5 20.2-58.1 52.4-106 103.1-141.1 19.7-13.6 39.2-27.4 59-40.8 6.5-4.4 13.4-9.6 20.8-11.3 7.9-1.8 19.6-2.8 24.2 1.5 4.5 4.4 2.6 15.8 3 24.2 0.1 2.4-1.6 5-2.8 7.4-37.7 75.1-74.2 150.9-113.9 225-13.1 24.6-34.2 45-51.7 67.2q-6 7.7-12 15.4c10-0.9 17.8-4.6 25.6-8.2 40-19 79.3-39.6 120.3-56.2 29.2-11.9 53.5-24.6 69.1-55.3 25.2-49.6 56-96.3 84.7-144 14.6-24.2 26.6-51 45.5-71.3 56.1-60.2 130.3-90 206.7-114.6 9.2-3 20-4.8 26.5 5.3 6.2 9.6 2.2 18.9-4 27.1-26.3 34.4-51.9 69.5-79.4 103-28.7 34.8-59.5 68-89.2 102-3.8 4.3-6.8 9.4-10.8 14.9 3.8 0.6 5.6 1.5 7 1.1 105-31.8 208.1-24.1 309.6 15.5 6.6 2.6 13.7 4.7 19.2 8.8 11.3 8.4 9.2 21.6-3.7 26.9-4.1 1.7-8.6 2.5-13 2.8-32.6 2.4-65.5 7.6-98 6-44-2.1-86.5 4.7-129.1 12.9-29.5 5.7-58.6 13.6-88.1 19.7-95 19.8-185.3 53.4-273.4 93.2-6 2.7-11.6 6.4-17.3 9.6 48.7-4.5 96.2-4.2 143.7 1.9 57.1 7.3 114.2 14.3 171.2 21.7 14.9 2 29.7 4.8 44.4 8 11 2.4 20.9 7.8 20.1 20.9-0.8 11.3-9.7 15.7-20.1 18-70.8 15.9-141.5 32.5-212.4 48-30.4 6.6-61.4 6.4-92.5 2.2-38.6-5.3-77.4-8.5-116-13.5-74.4-9.7-144 4.1-208.9 41.6q-50.6 29.3-100.9 58.9c-5.4 3.2-10.3 7.3-19.1 13.7 58.5-5.5 111.1-3.7 163.5 8.7 72.3 17.2 144.5 35.3 219.2 39.6 8.7 0.4 18.2 2.1 25.5 6.3 5.9 3.4 11.6 11.1 13 17.7 1.8 9.2-6.3 13.7-14.7 15.6-6 1.4-12.2 2.1-18.3 3.2-71.4 13-143.1 25.1-214.2 39.5-66.1 13.4-131.3 19.5-196.3-5-18.2-6.8-37-12.3-55.9-16.6-57.6-12.9-113.9-10.9-168.7 14.2-35.4 16.1-72.2 29.2-108.3 43.8-7.4 3-14.5 6.7-24.5 11.4 19.7 6.8 36.2 10.9 51.1 18 87.4 41.5 177.6 75.4 268.7 107.4 14.2 5 28 11.2 41.8 17.1 4.9 2 11 3.9 13.7 7.7 4 6 9.1 14.8 7.3 20.4-1.7 5.2-11.3 9.4-18.1 11.2-5.5 1.4-12.1-1.5-18.3-2.3-47.4-6.3-94.6-13.4-142.1-18.5-62.5-6.6-125.5-9.2-187.6-18-66.7-9.5-132.1-25.9-189.4-64.3-19.5-13.1-38.9-19-62.3-11-14.1 4.8-29.5 5.7-44.3 8.5-12.7 2.4-25.3 4.9-37.9 7.3 8.7 7.3 17.3 8.8 25.2 12 27.9 11 57.8 19 82.7 34.8 38 24.1 74.1 51.8 107.8 81.6 38 33.7 76.9 65.3 121.7 89.4 6.2 3.3 12.2 7.2 18.1 11.1 8.1 5.4 12.6 13.2 9.6 22.8-3.7 11.5-13.7 12.4-24 11.6-1.7-0.1-3.5-0.6-5.2-0.9-59.3-10.3-118.7-20.3-177.9-31.1-95.8-17.4-182.4-55.6-259.5-115.6-34.1-26.7-70.1-51-104.7-77.1-10.7-8-21.5-10.5-34.6-9.4-37.1 3-74.2 4.9-111.3 7.5-5.7 0.3-11.2 1.5-23.3 3.3 44.8 24.1 77.1 54.4 103.8 89.5 44.1 57.7 101.5 95.4 168.3 120.4 33.2 12.5 66.5 24.6 99.4 37.7 11.4 4.5 23 10.1 32.3 17.8 14.5 12 11.1 31.2-6.5 38.2-9.6 3.9-20.6 6.1-31 6.1-52.2-0.3-104.6 1.5-156.4-3-109.9-9.4-196.2-61.3-257.8-153.4-8.8-13.2-17-27-26.8-39.5-25.7-32.7-51.8-65-78.4-97-9.9-11.8-23-17.8-39.4-18.7-46-2.2-91.8-6-137.7-9.1-2.7-0.2-5.5 0.3-8.2 0.5 51 30.6 66.1 80.6 77.7 132.4 5.7 25.9 11.2 52 15.6 78.2 7.3 42.7 24.7 81 48.8 116.6 28.5 42.1 62.9 78.9 100.9 112.4 8 7 16.8 13.9 22.1 22.6 3.4 5.7 3.7 15.9 0.8 21.8-2.3 4.5-12 8-17.9 7.4-9.5-0.8-19.2-4.1-27.7-8.5-35.4-18.3-71.8-35.1-105.2-56.6-113.8-73.2-184.5-176.1-207.4-310.6-5.2-30.5-10.6-61.1-17.8-91.2-6.3-25.9-19.4-45.7-48.2-54.2-62.7-18.6-124.6-39.9-186.9-60-0.5-0.1-1.3 0.8-3.6 2.2 4.9 5.9 9.8 11.7 14.4 17.7 12.5 16.1 26.8 31.1 36.7 48.6 28.3 50.3 53.7 101.9 61.8 160.1 6.3 45.3 23.3 86.9 44.6 127.1 17 32.1 32.5 64.9 48.1 97.7 5.3 11.1 10 22.8 12.7 34.8 3.8 17.5-8.1 27.5-25 21.4-7.3-2.7-14.1-7.5-20.5-12-54.6-38.6-103-83.8-146.8-134.2-31.7-36.5-56.1-77.8-70.3-123.9-18.5-60-36.5-120.3-51.1-181.4-10.3-43-30.4-80.9-50.8-119.2-3.4-6.4-10.1-12-16.6-15.8-30.5-18.1-61.4-35.5-92.2-52.9-9.7-5.5-19.8-10.3-29.7-15.4 2.4 8 7.1 12.7 11.9 17.3 19.7 18.6 34.2 40.7 43.5 66 14.9 40.1 23.7 81.5 24.2 124.5 0.4 29.2 2.5 58.4 4 87.6 3.5 70.5 23.5 135.7 61.5 195.4 10.9 17.1 20.5 35.1 30.2 53.1 3.7 6.9 7.3 14.4 8.6 22.1 3 16.8-9.9 28-25.8 21.8-9.7-3.7-18.6-10.2-26.8-16.7-60.5-48.3-114.4-103.1-163.3-163.1-66.3-81.3-104.4-173.8-113.8-278.4-4-44.1-8.2-88.2-13.8-132.1-1.7-13.6-6.9-27.2-13-39.6-6.9-14.2-16.6-27.1-25.1-40.5-2.4-3.6-4.3-8.5-7.7-10.2-23.5-11.5-47.2-22.3-71-33.4 5.7 28.2 12.5 53.7 15.6 79.6 5.2 43.1 7.5 86.5 11.9 129.6 6.5 64 22.9 125.3 50.4 183.6 3.8 8 8.4 16.2 9.3 24.7 0.7 7-1.5 17.1-6.4 20.9-4.7 3.7-15.7 3.8-21.6 0.9-9.2-4.7-17.5-12.3-24.2-20.3-21.8-25.6-42.9-51.8-63.9-78.1-64.7-81.5-89.8-174.9-84.9-278 1.6-35.2-3.2-70.6-3.4-105.9-0.1-24.3-13.3-36.2-33.6-45-56.8-24.7-113.3-50.2-170-75.2-3.1-1.3-6.9-1-10.6-1.5 17 22.6 34.8 42.6 48.4 65.1 21 34.6 22.1 73.8 21.1 113.3-3 112.8 11 222.7 58 326.7 3.7 8.1 9.1 16 10 24.4 0.9 7.8-0.9 18.1-5.7 23.8-6.8 8.3-17.6 7-26.6 0.8-3.6-2.5-6.9-5.5-9.9-8.7-64.2-68.7-124.1-140.6-175.5-219.7-49.6-76.3-66.6-159.3-58.6-248.3 3.3-36.4 1.5-72.3-1.3-108.6-2.2-28.9-15.5-45-41.2-55-38.8-15.2-77.2-31.3-115.4-47.9-58.8-25.5-119.9-43.4-183.4-52.1-67.4-9.2-135.2-16.2-202.8-24.3-8.8-1.1-17.7-2.1-26.1-4.6-3.2-1-7.3-6.2-7.2-9.3 0.1-3.1 4.6-7.8 8-8.6 9.4-2.2 19.2-3.8 28.8-3.7 40.8 0.4 81.6-0.1 122.2 2.6 97.5 6.4 193.6 19.9 284.3 60 47 20.8 95.3 38.3 142.1 59.6 20.8 9.5 38.3 7.6 58-1.2 51.1-22.9 94.2-56.2 131-97.8 34.1-38.6 73.4-69.3 123.2-84.4 58.8-17.9 118.7-18.1 178.9-9 87.7 13.2 173.6 34.7 258.9 58.5 4.2 1.2 8.6 2.4 12.5 4.3 8.6 4.2 14.6 10.5 12.3 21-2.2 10.3-9.8 14.8-19.5 14.4-10.6-0.4-21.2-1.9-31.6-3.8-80.4-14.2-159.1-8.1-235.1 21.7-54.4 21.3-107.9 44.7-161.5 68-64.5 28-130.6 49.9-201.4 54.5-2.1 0.1-4.1 1.9-8.8 4.2 9.8 5.2 17.2 9.6 25 13.1 71.8 32.4 143.6 64.9 215.7 96.7 6.7 3 15.9 4.2 22.8 2.1 59.3-17.7 120.5-29.2 177.1-55.7 53.1-24.8 105-50 144.8-95.9 27.9-32.2 66-51.2 109.2-54.8 49.3-4.2 98.9-5.7 148.4-8.5 15-0.8 30-2.6 45-2.7 11.9-0.2 20.5 6.2 22.2 18.5 1.6 12.4-4.9 20.2-16.8 23.3-5.2 1.3-10.5 1.8-15.7 2.8-56.9 11.7-107.5 35.2-148.1 77.9-17.6 18.6-35.2 37.4-53.1 55.8-29 29.9-63.4 50.4-103.8 61.6-76 21.1-152.4 39.3-233.5 33.7 5.6 3.6 10.9 7.8 16.8 10.7zm175.2 387c8.1 27.8 18.3 55.6 31.9 81 33.2 61.9 76.5 116.6 125.5 166.8 3.5 3.7 7.7 6.6 15.1 7.4-3.7-7.5-7.2-15.2-11.1-22.7-14.5-27.7-25.5-56.6-28-87.9-4-51.9-8.5-103.8-9.6-155.9-0.9-39.5-8.5-77.1-20.9-114.1-3-9.1-7.4-18.2-13-26-29.9-41.7-70.5-70.7-120.1-98.7 11.8 87.5 7 170.6 30.2 250.1zm1813.6-255.3c15.6-26.6 29.2-54.5 42.7-82.3 36.8-76.4 73.2-153 109.7-229.6 3.2-6.8 6.4-13.8 6.8-23.4-4.8 3.1-10.1 5.7-14.5 9.4-45.5 39.1-92.7 76.5-135.7 118.3-25.7 24.9-46 55.8-66.3 85.6-25.8 37.9-39.7 80.5-43.2 126.6-2.3 29.9-7.2 59.6-10.8 89.4-0.6 5-0.1 10-0.2 18.8 44.3-34.1 84.5-67.1 111.5-112.8zm-1472.2 356.6c17.4 72.3 48.1 136.6 99.4 190.7 29.8 31.4 60.1 62.1 99.7 92.6-3.9-11.1-5.1-16.5-7.6-21.3-13.2-25-26.8-49.9-40.3-74.8-19.9-36.9-32.4-76.2-39-117.8-15.5-97.4-56.7-181.8-131.2-248.3-11-9.9-23.2-18.5-37.5-29.7 19.8 72.5 40.1 140.1 56.5 208.6zm-822.4-218.2c-17.1-71-24.3-142.9-16.9-215.7 5.2-50.8-9.1-94.4-43.5-131.4-21.4-23.1-44.3-44.9-66.1-66.8-4.5 3.3-6.9 4.3-6.9 5.2-0.7 50.3-0.7 100.5-1.8 150.7-1 39.9 8 77.1 25.6 112.6 28.1 56.4 65 107.1 103.4 156.8 1.4 1.8 4.1 2.5 8.7 5.1-1.1-7-1.4-11.8-2.5-16.5zm864.8-4.2c71.3 29.3 144.3 52.9 219.8 68.6 24.7 5.2 46.3 2.2 66.8-14.8 26.5-22.1 54.6-42.4 73.8-71.8 9-13.7 16.2-28.7 26.1-46.6-11.3-0.8-17.9-1.8-24.4-1.7-52.8 1.2-103 16.3-153.1 30.3-68.7 19.3-138.5 27.6-209.6 27-3.2 0-6.5 0.3-14.6 0.8 7.8 4.3 11.3 6.6 15.2 8.2zm-200.9-179.2c40.4-15.4 80-33 119.2-51.3 61.5-29 122.4-59.3 183.5-89.1 3.9-1.9 7.8-3.9 15.7-7.9-41.4-8.1-79-7.8-116.5-6.9-6.2 0.2-12.4 1.5-18.5 1.2-78.1-3.7-140.6 29.9-194.2 82.6-30.3 29.7-60.8 58.7-98.6 80.8 37.9 7.3 74.6 3.8 109.4-9.4zm-672.9-298.4c52.4-13.3 103.2-31.2 150.8-57.5 72.1-40 147-73.8 226.8-95.7 3.9-1 7.6-2.8 16.7-6.3-49.3-11.3-93.8-15.4-138.8-15.3-36.6 0.2-72.4 4.3-106.9 17.4-29.5 11.2-54.9 28.9-75.4 52.6-34.5 39.8-74.7 72.8-118.1 102.1-1.9 1.3-3.2 3.6-9 10.3 21.4-2.9 38-3.6 53.9-7.6zm1729.1 429.4c-53.8 28.5-106.7 58.7-160.1 88.1-33.2 18.3-66.6 36.2-99.9 54.4-3.5 1.9-6.7 4.4-8.8 10.4 27-0.3 53.9 0.1 80.8-1.1 51.2-2.3 102.3-5.8 153.5-8.2 14.1-0.7 23.8-6.1 33.7-16.8 38.5-41.5 51.2-93.6 65.5-145.3q-2.1-3.1-4.3-6.2c-20.2 8.2-41.3 14.5-60.4 24.7zm100.8 466c-27.9-11.2-56.3-21.5-83.6-34-46.7-21.3-86.1-52.1-116.8-93.8-13.1-17.8-27.8-34.5-41.4-51.9-36.5-46.8-88.2-65.4-148.1-80.5 6.2 8.3 9.5 12.8 12.8 17.3 18.9 25.6 38.1 51 56.8 76.8 11.4 15.7 21.8 32.2 33.4 47.9 56.5 76.7 133.2 117.2 227.4 125.8 25.4 2.3 51.1 3 76.6 4.4q1-2 2-4c-6.4-2.7-12.7-5.4-19.1-8zm184.3-711.6c-37.1 32.7-74.9 64.6-110.5 98.9-27.1 26.1-44.9 58.9-54.5 95.6-13.6 52-26.9 104.1-40.5 156.8 4.1-2.4 10-5.1 15.2-8.9 36-26.7 65.8-59.2 86.7-98.9 15.2-28.9 29.9-58.3 41.8-88.6 19.5-49.6 42.3-97.2 70.1-142.5 4.1-6.6 7.3-13.6 10.9-20.4q-1.2-1.3-2.4-2.5c-5.6 3.4-11.9 6.2-16.8 10.5zm-770.4 589c-0.4-3.5-1.5-6.9-1.7-10.4-4.7-66.9-44.1-107.2-102.1-133.2-2.1-1-4.8-0.8-9.4-1.5 15.2 60.3 26.6 120.3 45.9 177.7 27.5 81.7 81.6 145.2 152.6 194.9-55.2-66.1-75.8-144.7-85.3-227.5zm898.9 22c-15.4-24.6-108.3-99.5-152.2-122.7-37.8-20-137.4-42.9-194.7-44.3 116.5 104 241.8 163.9 346.9 167zm-1573.8-773.6c-59.8 66.5-138.8 98.6-218.8 129.7-18.7 7.3-39.1 10.3-63.3 16.4 9.7 2 15.7 4.4 21.7 4.3 20.3-0.4 41 0.4 60.8-3.2 43.4-8 86.4-18.2 129.4-28 35.5-8 65.2-26.7 91.1-51.7 11.4-11.1 22.3-22.6 33.4-34.1 25-25.9 49.9-52 78.2-81.5-52.3 0-98.9 10.7-132.5 48.1zm2069.7 411.4c35.8 11.8 72.6 15.3 109.9 8.8 48.7-8.6 97.3-18.2 145.9-27.5 5.9-1.1 11.6-3.4 23.6-6.9-13.2-3.2-20.4-5.3-27.7-6.7-46-8.7-92-17.7-138.1-25.7-69.5-12-137.1-6.2-205.9 25 34.2 12.3 63 23.2 92.3 33zm-1320.5-90.4c-5.2 18.7-9.4 37.7-14.5 56.5-11.6 43.1-27.3 84.1-63 114.7q2.2 2.3 4.4 4.7c9.7-5.3 20.2-9.6 29-16.2 59.1-44.6 101.2-100.7 116-174.7 9.7-48.4 19-96.8 29.3-150-44.4 50.7-83.6 101.1-101.2 165zm1200-6.9c40.1-41.5 77.7-85 100.4-139 26.2-62.2 58.8-120.7 98.4-175.4 4-5.5 7.1-11.8 12.3-20.6-6.4 1.8-10 2-12.6 3.7-57.5 38.3-107.2 83.3-134.9 149.1-23.7 56.2-49.9 111.3-74.8 167-3.4 7.6-5.7 15.7-8.5 23.6q1.8 1.3 3.5 2.6c5.5-3.6 11.7-6.4 16.2-11zm-2290.6-3.7c-6.5 82.5 13.4 157.5 63.8 223.9 1.6 2 3.6 3.8 5.6 5.6 0.4 0.4 1.5 0 4.3-0.1-1.2-8.2-1.8-16.5-3.7-24.5-14.2-60.7-16.5-122.4-16.8-184.2-0.2-32.4-3.3-63.6-18.4-92.5-6.3-11.9-15.4-22.4-25.8-37.3-3.4 41-6.3 75.1-9 109.1zm3032-494.9c-23 44.6-47.7 88.3-72.6 134.3 5.8-3.3 11.4-5.2 15.4-8.8 21.1-18.9 43.5-36.6 62.1-57.6 49.8-56.2 97.9-113.9 146.5-171.1 5.4-6.3 9.9-13.5 14.7-20.2q-2-2-4-4c-62.7 31.1-127.1 59.5-162.1 127.4zm-342.6 122c-15.3 45.2-32.8 89.7-49.2 134.5-0.8 2.3-0.5 5-0.8 7.8 43.3-24.9 122.6-150.5 173.4-277.7-54 33.3-101.9 72-123.4 135.4zm-1771.1 412c-53.6-11.2-107.5-19-162.5-12.9-22 2.5-39.5 12.2-55.6 27.5-19 17.9-40.6 33.2-63.2 51.4 100 0.1 190.2-36.1 283.9-62-1.7-2.7-2.1-3.9-2.6-4zm1794.3-187.9c40.4 4.3 81 7 121.1 13 35.4 5.2 70.3 6.2 105.4 0.2 27.9-4.7 55.8-9.6 83.6-14.9 8.4-1.6 16.6-4.6 25.8-7.3-2-2.9-2.6-4.9-3.5-4.9-60.5-6.8-120.9-15.6-181.6-19.5-55.9-3.7-110.1 8.8-167.7 29.3 8.9 2.2 12.8 3.6 16.9 4.1zm-1191.7 194.5c-5.7-2.3-8.7-4.7-11.4-4.4-38.5 4.7-77.1 8.8-115.4 14.9-25.4 4-45.5 18.6-60.6 39.5-21 29.4-41.8 59-66.3 93.6 84.7-53.8 162.7-107 253.7-143.6zm634.4 242c-31.8-13.3-64.4-25.1-95.1-40.6-41-20.8-83.9-25.8-128.8-23.4-13.2 0.8-21 6.8-26.7 17.8 87.3 40 180 51.1 275 55.6-8.2-3.1-16.4-6-24.4-9.4zm1154.1-679.8c-86.6-26.1-168.8-11.4-248.6 27.4 82.1-14 164.4-28.7 248.6-27.4z"/>
		</g>
	</g>
</svg>