<svg version="1.2" xmlns="http://www.w3.org/2000/svg" viewBox="0 0 5000 1976" width="5000" height="1976">
	<title>vecteezy_set-of-hand-drawn-floral-elements-for-your-design-leaf-and_-ai</title>
	<style>
		.s0 { fill: #fff8ea } 
	</style>
	<g id="Layer 1">
		<g id="&lt;Group&gt;">
			<path id="&lt;Compound Path&gt;" fill-rule="evenodd" class="s0" d="m2942.3 1261.8c58.8 5.5 106.4 37.3 157.6 61 88.3 40.9 177.5 79.9 266.5 119.3 33.4 14.8 67.2 28.6 100.7 43.1 13 5.6 24.2 13.2 21.1 29.8-2.6 14.9-15.3 17.5-27.5 19.7-11.9 2.2-24 4.1-36.1 5.2-55.8 5.1-111.6 9.9-167.4 14.8-97.7 8.6-182.7-20.7-254.6-87-65.4-60.3-130.9-120.1-205.8-168.9-20.9-13.6-40.3-19.5-63.9-19.6-69.3-0.3-138.7-1.4-208-2.3-17.7-0.3-35.4-1.1-53.1-1.7 31.2 23.4 62.9 43.2 96.2 59.6 38.9 19.3 71.1 45.4 100.1 77.8 79.1 88.5 165.5 168.5 273.5 221.8 19.6 9.7 38.6 20.8 56.7 33.1 5.9 3.9 11.7 14.1 10.7 20.2-1 5.9-10.2 11.9-17.1 14.9-6.3 2.8-14.4 2.5-21.6 2.2-52.2-2.5-104.6-2.8-156.3-8.7-95.4-10.8-172.9-59.4-234.2-130-46.9-53.9-88.7-113-126.9-173.6-51.6-82-123-129.1-217.9-143-34.9-5.2-69.6-11.5-104.5-17.1-9-1.5-18.1-2.5-26.1-3.5 33.1 68.3 65 135.1 97.6 201.5 31.5 64 71.3 121.4 128.4 166 32.6 25.5 62.1 54.8 93.2 82 9.9 8.6 18.7 18.1 11.4 31.2-7.4 13.3-20.8 10.3-32.5 5.9-54.7-20.4-110.3-38.9-163.7-62.4-47.7-21-85.2-56.4-111.4-102.1-44.6-77.8-76.1-160-85.2-250.3-2.6-26.1-12.4-51.7-20.2-77.1-5.7-18.7-19.5-28-38.6-34.7-52.7-18.5-104.9-38.8-156.4-60.5-30.1-12.6-58.4-29.3-88-44.3-0.6 3.9-2.1 6.6-1.3 8.2 24.9 49.5 36.8 102.8 48.2 156.5 4.4 21.1 13.7 41.7 23.8 61 43.6 83.1 88.5 165.5 162.4 227.1 9.3 7.8 17.7 16.8 26.9 24.7 10.6 9.3 20.3 19.3 13.6 34.3-6.4 14.5-19.6 16-34 15-96.2-6.4-180.6-38.6-245.8-112.1-19.4-21.8-37.9-44.6-54.2-68.8-43.7-65-62.9-136.7-52.5-214.9 8.2-62.4 9.2-123.3-17.4-182.6-7.3-16.4-14.8-29.3-30.1-38.9-95.9-60.4-191.2-121.4-286.9-182-6.5-4.2-14.1-6.7-26.9-12.5 23.6 68.8 45.8 131.7 66.7 195 13.7 41.5 26.2 83.4 38.3 125.4 25.8 89.5 39.2 184.3 110.6 254 8.4 8.3 12.5 21.2 2.7 29.1-6.8 5.4-20.1 6.8-29.1 4.5-11.4-2.9-21.9-10.5-31.8-17.5-25.8-18.3-50.7-38-76.6-56.1-92.1-64.5-145.7-154.1-175.9-260.9-16.9-59.9-17.4-117.1 8.4-174.5 18.9-42.1 26.2-85.2 11.1-131.3-5.2-16.1-11-27.9-25.2-37.2-37.7-24.7-76.1-48.6-111.4-76.4-85.1-67.1-180.2-115.4-279.9-155.9-6.9-2.8-14.8-3.4-27.1-6.1 15.3 20.3 27.4 35.5 38.7 51.3 36.8 51.6 74 103.2 90.5 165.6 8.7 32.9 15.8 66.4 21 100 9.7 62.6 34.5 118.9 66.2 172.8 4.9 8.4 10.2 16.6 15.1 25 8 13.5 11.9 27.4-1.6 39.7-11.9 10.8-24.8 7.2-37.2 0.2-6.3-3.6-12.8-7.2-18.4-11.9-52.4-43.4-105.7-85.9-156.5-131.3-20.5-18.3-38.5-41.2-52.3-65.1-45.7-79.3-84.9-162-100.3-253.2-8.2-49-26.9-93.5-49.2-136.7-19.6-37.9-46.7-66.4-93.3-71.9-42.2-5-84.1-13.5-125.7-22.1-53.6-11-107-22.9-160.1-36-13.2-3.2-24.9-12.1-45.5-22.5 15.6-8.2 23-14.8 31-15.7 13.1-1.5 26.8-0.3 40 1.6 62.6 9 125.1 19.2 187.7 28 78.9 11.1 154.1 33.2 227.3 65.2 88 38.5 177.9 72.7 267 108.9 20.8 8.4 40.9 9.4 63.8 5.6 58.6-9.7 107.1-34 149.9-76 52.6-51.6 117.6-82.5 191.7-89.7 96.6-9.4 188.3 16.6 279.7 42.7 14.7 4.2 22.4 14.9 20.3 30.4-1.9 14.3-12.6 20.1-25.7 21.8-92.8 12-178 46.8-263.3 83.6-71.6 31-147.1 51.8-226.9 47.5-19.8-1.1-39.5-2.2-60.6-3.3 1.6 4.6 1.6 6.3 2.4 6.8 80.6 56.7 161.5 113 241.9 170 12.8 9.1 25.3 8.3 37.8 2.3 22.9-11.1 46.5-21.6 67.6-35.6 38.5-25.6 76.1-52.6 112.8-80.8 49.7-38.1 106-54.6 167.5-51.3 78.9 4.2 157.6 11.3 236.4 17.6 7.2 0.5 14.7 2.4 21 5.7 17.1 9.1 19.2 30.1 4.2 42.2-5.4 4.4-12.8 6.6-19.4 9.6-44.4 19.9-88.9 39.6-133.2 59.7-58.7 26.6-116.9 54.3-176.1 80-50.9 22.1-104.6 31.8-160.4 26.8-7.2-0.6-14.5 0.6-28 1.3 56.5 35.9 106.2 68.7 157.4 98.9 12.6 7.5 30.9 11.4 45.1 8.9 58.8-10.3 117.2-23.4 166-61.5 31.7-24.6 64.4-48 95.8-72.9 37.2-29.6 73.2-60.6 110.3-90.2 40.4-32.4 87.1-47.3 138.9-47 73.3 0.5 145.6 9.8 217.4 23.5 44.2 8.4 88.7 14.6 133.1 22 5.9 1 13.4 1.1 17.1 4.8 5.4 5.4 10.6 13.5 10.8 20.6 0.1 5.2-6.8 12.8-12.5 15.3-7.4 3.3-16.6 2.7-25 3.6-35.1 3.8-70.6 5.2-105.2 11.8-82.1 15.5-158.4 47.5-229.8 90.5-73.2 44.1-150.1 80.1-229.7 111.1-44.8 17.4-91.3 25.7-139.1 26.9-22.9 0.6-45.9-0.5-74.5-0.9 9.2 6.2 13.7 9.8 18.7 12.4 44.1 23.4 87.8 47.5 132.7 69.4 33.8 16.4 69 30 103.7 44.6 16 6.7 29.4 3.1 44-6.9 41.9-28.6 77.1-63.8 104.3-106.1 25.1-39 59.8-62.3 102.8-77 101.5-34.7 207.4-41.2 312.7-51.7 3.6-0.3 7.3 0.3 10.9 0.3 14.7 0.3 27.2 4.6 30 20.8 2.7 16.2-8.1 25-21.4 29.9-71.5 26.6-133.1 70.5-196.9 110.7-68 43-137.2 83.7-215.5 105.7-16.8 4.8-33.9 8.9-50.9 13.3q-0.3 3.7-0.5 7.4c33.4 9.1 66.9 18 100.3 27.1 47.1 12.8 91.6 16.2 135-15.5 28.2-20.6 64.3-30.2 92.3-50.9 63.7-47.1 120.5-102.3 170.6-164.2 23.8-29.3 50-56.6 73.4-86.2 48.7-61.6 114.9-84.6 189.8-84.2 49.7 0.2 99.4 6.8 149.1 10.9 14.4 1.1 31.8 0.8 35.2 19.1 3.7 19.8-14.8 22.4-27.5 28.2-83.6 38-162.4 83.1-228.6 148.1-22.5 22.2-47.1 42.3-70.8 63.3-76.4 68.4-165.3 115.2-260.6 151-7.1 2.7-13.9 6.6-28.5 13.6 127 11.3 245.6 22.3 365.1 14.5 14.8-1 27.6-2.8 33.7-20.9 3.1-9 14.5-16.2 23.6-21.9 30.4-18.8 52.2-45.4 62.9-78.3 34.9-107.4 82.8-207.9 151-298.3 5.1-6.7 8.4-14.8 12.6-22.2 34.4-60.6 90-94 152.1-119.2 3.3-1.4 7-2.2 10.6-2.6 28.5-3.7 45.4 14 37.2 41.2-4.8 16.2-13 31.4-21.1 46.4-44.8 83.7-91 166.6-134.8 250.8-40.9 78.6-98.3 141.5-170.4 191.9-6.3 4.4-12 9.4-18 14.2 48-3.3 93.5-10.9 138.3-21.7 60.3-14.6 120-31.4 179.8-48 15.1-4.1 29.4-9.5 33.9-28.7 10.8-46.1 24.4-91.5 34.7-137.7 12.8-57.4 29.3-113.3 59.7-163.9 28.8-48 57.9-96 89.3-142.4 39.8-58.8 87.1-111.2 146.7-151 15.1-10.1 31.4-19.4 48.4-25.1 21.6-7.3 35.9 6.5 32 28.9-2.1 11.9-5.6 23.9-10.7 34.9-56.4 121.3-112 243.1-170.5 363.5-28.4 58.5-69.8 108.4-118.7 151.7-5.2 4.6-10.1 9.5-18 16.9 7.4 0 10.9 1 13.7-0.1 47.8-17.9 96.5-34 143.1-54.8 48.7-21.8 89.6-53.3 107.7-107.6 5.3-15.9 16.9-29.5 24.6-44.7 17-33.5 34.3-67 49.9-101.2 20.1-44.2 34.6-91.6 59.2-133.1 29.6-50 64.8-97.5 102.2-142.1 39.1-46.6 83.3-88.8 126.1-132 9.1-9.2 21.3-16.8 33.5-21.2 18-6.4 32.1 5.6 29.6 24.5-1.5 11.9-6 23.6-10.4 34.9-30.5 76.9-59.8 154.3-92.6 230.3-13.8 32.1-33.2 62.3-53.1 91.3-49.4 71.5-109 134-175.1 190.4-12.6 10.7-24.8 21.8-38.5 33.8 5.1 2.2 6.5 3.4 7.2 3.1 124.4-56.4 242.4-124.5 358.3-196.3 8.1-5 14.5-16 17.6-25.6 16.3-50.9 33.3-101.8 46.2-153.6 15.2-61.3 51.4-106.4 99.4-144.4 52.7-41.7 99.7-89.2 141.9-141.6 5.3-6.7 10.4-15 17.5-18.3 10.2-4.6 23.6-9.4 32.9-6.2 6.9 2.4 13.3 17.5 13 26.8-0.5 17.9-4.4 36.2-9.6 53.5-28.8 95.6-72.8 183.1-140.4 257.7-8 8.9-15.3 18.4-23 27.6 53.7-24.6 101.4-56.9 153.1-80.1 57.4-25.8 102-61.5 137.3-114 35.9-53.2 90.2-80.1 155.4-82.6 34.1-1.3 68.1-2.2 102.1-4.2 27.9-1.6 55.8-4.5 83.7-6.7 11-0.8 24.9-2 26.8 11.6 1.1 8.7-5.3 19.9-11.5 27.6-5.8 7.2-15 12.5-23.7 16.6-93.5 44-186.9 88-280.9 131.1-47.4 21.7-97.2 38.7-143.5 62.5-59.4 30.7-116.4 66-174.3 99.6-5.1 3-9 8.1-18 16.4 87.5-16 166.4 2 245.9 12.3 50.5 6.6 101.4 10.6 152.2 14.7 20.6 1.7 41.4 0.2 62 1.3 10.8 0.6 22.3 1.8 32.1 5.9 18.6 7.8 21 28.6 4.9 40.9-6.4 5-15.1 8.2-23.2 9.5-98.4 16.5-196.7 34.4-295.5 47.7-34.3 4.7-71 2.1-104.9-5-54.6-11.4-108.1-28.5-161.5-44.9-16.4-5.1-29.9-4.3-45.5 1.8-68 26.7-132.2 61-194.8 98.3-6.6 3.9-12.5 8.9-24.6 17.6 13.6-0.2 19.4-0.1 25.2-0.5 82.1-5.5 162.7 2.6 242 25.2 40.9 11.6 82.8 19.8 124.2 29.7 39.1 9.3 78.2 18.4 117.2 28.1 13.6 3.5 25.9 10.2 24.6 26.9-1.1 14.4-12.2 20.3-25 22.6-80.2 13.9-159.3 33.9-241.5 37.6-87.7 3.9-169.4-11.9-243.9-59.7-4.1-2.6-8.3-5.1-12.6-7.4-66.3-35.1-130.7-47.2-203.5-9.2-80.6 42.2-166.6 74.1-250.5 109.9-38.8 16.6-78.2 32-118.8 48.5 4.6 3.3 6.3 5.5 8.4 5.9 4.7 1 9.7 1.8 14.4 1.5 83.1-4.6 157.6 20.1 229.6 60.5 84.1 47.2 173.8 81.9 269.3 99.9 8.4 1.6 16.7 3.6 24.9 6 12.7 3.6 24.3 11.3 20.3 25.2-2.4 8.3-13.3 15.2-21.8 20.2-5.8 3.4-14.1 3.2-21.4 3.6-34 1.8-68 4.5-102 4.7-102.1 0.8-197.7-21.4-283.8-79.6-35.2-23.8-73.7-42.6-110-64.9-45.2-27.8-92.4-41.6-145.5-28.6-11.7 2.8-24.5 0.5-36.3 3.1-66.1 14.3-131.9 29.4-197.9 44.2q-0.5 3.9-1 7.9zm-715.8-575.3c-55.6-5.3-111.8-13.7-166.6 2.3-23.8 7-46.5 19.9-67.9 33-16.4 10-29.8 24.8-44.8 37.2-66.5 54.5-133 108.9-199.7 163.6 35.2 0 71.2-9.2 104.4-23.9 68.8-30.4 137.9-60.9 203.3-97.7 68.1-38.4 137-73.2 212.1-95.3 4-1.1 7.7-3.3 11.6-5q-0.2-3.5-0.4-7.1c-17.3-2.4-34.6-5.4-52-7.1zm632.6 602.2c66.8 43 122.9 98.8 181.4 151.9 40.5 36.8 88.8 58.9 143.6 66.2 63.2 8.5 125.6 1.2 197.1-6.2-12.1-7.1-16.5-10.7-21.4-12.3-120.8-40.4-231.1-102.5-342.2-163.2-56.9-31.1-108-43.8-159.5-39.9 0.3 1.2 0.2 3 1 3.5zm-2182.7-662c33.7 109.2 78.1 212.6 172.3 285.6 4.7 3.7 9.7 7 19.9 14.4-8.9-27.8-17.5-49.3-22.4-71.6-8.6-39.2-14.8-78.9-22.1-118.4-6.6-36.3-19.8-70.1-39.7-101.2-25-38.9-49.6-78-75.1-116.5-20.4-30.8-46.6-55.7-83.1-70.9 31.4 56 32 119.8 50.2 178.6zm2730.3 294.5c25.3-47 48.7-95.1 71-143.5 32.4-70.6 63-142 94.3-213 3.6-8.3 7-16.8 13.6-32.6-11.5 6.9-16.7 9.1-20.7 12.6-50.4 44.6-94.3 94.4-126.6 153.9-17.4 31.9-34.4 64.2-53.2 95.3-43.4 72.1-65.5 150.9-76.3 233.5-0.2 1.9 1.6 4.2 3.3 8.4 38.5-33.2 71-70.7 94.6-114.6zm-683.4-83.4c-17.4 7.1-33.7 19.5-47.2 32.9-24.3 23.7-47.5 48.9-68.5 75.5-56.7 72-122 135.1-193.5 192.1-3.6 2.9-6.5 6.7-13 13.6 9-1.7 13.7-1.8 17.7-3.5 88.3-38.8 172.7-83.6 241.4-153.3 21.3-21.6 43.9-42 65.7-63.2 37.6-36.6 78.7-68.5 125.7-92.5 9.1-4.6 17.3-11 31.3-20.2-59.6-6.5-110.9-1.4-159.6 18.6zm166.5 817.3c-101-50.5-181.9-126.1-257.7-207.4-44.7-47.9-104.3-68.2-157.6-100.3q-3.1 2.8-6.1 5.7c13.8 20.6 26.5 42.1 41.7 61.6 32 41.4 63.6 83.3 98.5 122.2 76.2 85 171.9 128.3 289.4 127.8-3.9-4.6-5.5-8.3-8.2-9.6zm-988.6-120c-75.9-72.1-123-162.1-159.5-258.3-8.5-22.4-11.3-47.2-14.7-71.2-6-42.5-24.4-80.4-41-119.5 4.8 51.4-1.5 101.3-10.4 151.2-7.1 39.3-2.3 79.1 14.1 114.6 41 88.6 100.3 160.8 196.4 194.7 7.5 2.6 15.6 3.6 30.3 6.8-8.2-9.9-11.3-14.6-15.2-18.3zm-270.8-918.5c-35.8-0.1-70.1 7.5-100.2 28.5-49.7 34.6-99.3 69.4-153.8 107.5 38.8 10.6 73 9.5 106.7 3.4 22.4-4.2 45-11.2 65.7-20.9 70.3-32.9 139.9-67.6 209.6-101.9 2.9-1.4 4.9-4.7 12.9-12.7-51.3-1.5-96.1-3.8-140.9-3.9zm2054.8 235.3c79.8-71.4 144.9-154.2 189.8-251.5 22.3-48.5 39.8-99.3 59.4-149.1 3-7.5 5.3-15.2 4-25.5-7.2 7.3-15.3 13.8-21.4 21.9-53.5 70.9-107.9 141.1-159 213.6-16.4 23.3-24.5 52.7-35.6 79.6-14.9 35.9-29 72.2-44.4 110.7 5.1 0.2 6.6 0.8 7.2 0.3zm-2447.5 28.1c-20.9 47.5-39.9 89.9-29.7 139.1 20.5 99.6 55.3 191.4 138.7 256.9 4.6 3.7 9.5 6.9 20.9 15.2-44.4-140.7-86.3-273.2-129.9-411.2zm1841.1-111.9c-45.3 74.8-100.7 143.9-131.2 227.2-15.7 42.8-29.9 86.2-44.8 129.3q3.2 2.2 6.3 4.4c11.7-11.2 25.5-21.1 34.9-34 24.9-34.4 52.4-67.9 70.8-105.7 47-96.4 93.5-192.8 159-278.5 3.6-4.7 6.1-10 9.2-15q-3-2.7-6-5.3c-38.1 18.9-75.8 40.8-98.2 77.6zm-2008.5-259c35.3 4.5 67.3-1 97.9-10.2 38.3-11.5 75.6-26 112.7-41 51.6-20.8 102.6-43.2 155.7-65.8-115.6-53.7-238.8-14.8-366.3 117zm3246-153.1c-48.7 46.9-94.2 90.2-139 134.2-22.9 22.5-38.6 49.7-47.6 80.9-8.3 29-18.4 57.4-27.7 86.1q3.6 2.5 7.2 5c83.2-90.5 170.9-178 207.1-306.2zm-439 588.4c68.1 69.7 226.3 96.6 357.4 58.9-118.5-22.8-231.8-74.3-357.4-58.9zm-1810.5 142.8c110.5-31.2 195.4-101.7 292.9-162.8-130.1-9.2-235 50.1-292.9 162.8zm31.9 264.2c12.5 58.5 32 114.4 61 167.1 28.9 52.5 73 86.1 127.9 109.3-0.1-4 0.7-7-0.3-7.7-74.8-58.1-116.8-138.2-150.9-223.8-10.4-26.3-22.1-52.1-33.2-78.2q-4.4 1.3-8.8 2.7c1.4 10.2 2.1 20.6 4.3 30.6zm2431.3-884c79.2-16 145.5-56.9 216.7-85.5-100.3-14.3-187.8 14.8-216.7 85.5zm-867.8 860.6c-63.4-31.5-128.8-65.2-195.4-96.4-26.8-12.6-56.1-19.8-84.3-29.4q-1.1 3.8-2.2 7.6c122 86.4 214.3 124.6 281.9 118.2zm571.9-578.7c65.6 30.1 133.5 36.7 203.9 19.2-67.2-13.7-134.5-26.5-203.9-19.2z"/>
		</g>
	</g>
</svg>