<?xml version="1.0" standalone="no"?><svg xmlns="http://www.w3.org/2000/svg" viewBox="0 0 1440 320"><path fill="#F9F3CF" fill-opacity="1" d="M0,96L40,128C80,160,160,224,240,218.7C320,213,400,139,480,133.3C560,128,640,192,720,181.3C800,171,880,85,960,85.3C1040,85,1120,171,1200,197.3C1280,224,1360,192,1400,176L1440,160L1440,320L1400,320C1360,320,1280,320,1200,320C1120,320,1040,320,960,320C880,320,800,320,720,320C640,320,560,320,480,320C400,320,320,320,240,320C160,320,80,320,40,320L0,320Z"></path></svg>