<?xml version="1.0" standalone="no"?><svg xmlns="http://www.w3.org/2000/svg" viewBox="0 0 1440 320"><path fill="#AA512F" fill-opacity="1" d="M0,96L34.3,128C68.6,160,137,224,206,213.3C274.3,203,343,117,411,101.3C480,85,549,139,617,138.7C685.7,139,754,85,823,64C891.4,43,960,53,1029,80C1097.1,107,1166,149,1234,165.3C1302.9,181,1371,171,1406,165.3L1440,160L1440,320L1405.7,320C1371.4,320,1303,320,1234,320C1165.7,320,1097,320,1029,320C960,320,891,320,823,320C754.3,320,686,320,617,320C548.6,320,480,320,411,320C342.9,320,274,320,206,320C137.1,320,69,320,34,320L0,320Z"></path></svg>