<?xml version="1.0" standalone="no"?><svg xmlns="http://www.w3.org/2000/svg" viewBox="0 0 1440 320"><path fill="#DDBC89" fill-opacity="1" d="M0,64L34.3,80C68.6,96,137,128,206,122.7C274.3,117,343,75,411,80C480,85,549,139,617,144C685.7,149,754,107,823,101.3C891.4,96,960,128,1029,117.3C1097.1,107,1166,53,1234,37.3C1302.9,21,1371,43,1406,53.3L1440,64L1440,320L1405.7,320C1371.4,320,1303,320,1234,320C1165.7,320,1097,320,1029,320C960,320,891,320,823,320C754.3,320,686,320,617,320C548.6,320,480,320,411,320C342.9,320,274,320,206,320C137.1,320,69,320,34,320L0,320Z"></path></svg>